# xmcd
#
# Track frame offsets:
#	150
#	38700
#	72910
#	95834
#	125050
#	158635
#	195214
#	231263
#
# Disc length: 3377 seconds
#
# Revision: 0
# Processed by: cddbd v1.5.2PL0 Copyright (c) Steve Scherf et al.
# Submitted via: EZCDAudioConverter 7.0.8.1
#
DISCID=660d2f08
DTITLE=Grateful Dead - Spring 1990 (The Other One) Copps Coliseum, Hamilton, O
DTITLE=ntario, Canada, 3/21/90
DYEAR=2014
DGENRE=Psychedelic Rock
TTITLE0=Mississippi Half-Step Uptown Toodeloo
TTITLE1=New Minglewood Blues
TTITLE2=Far from me
TTITLE3=Queen Jane Approximately
TTITLE4=Loose Lucy
TTITLE5=Victim or the Crime
TTITLE6=Standing in the Moon
TTITLE7=Promised Land
EXTD=
EXTT0=
EXTT1=
EXTT2=
EXTT3=
EXTT4=
EXTT5=
EXTT6=
EXTT7=
PLAYORDER=
